<mxfile host="Electron" modified="2024-05-02T05:25:57.917Z" agent="Mozilla/5.0 (X11; Linux x86_64) AppleWebKit/537.36 (KHTML, like Gecko) draw.io/21.6.1 Chrome/112.0.5615.204 Electron/24.6.1 Safari/537.36" etag="-gkpsczqt0uRRaaob0zT" version="21.6.1" type="device">
  <diagram name="Page-1" id="0cv2G-S0-AO7ha8Dd1sW">
    <mxGraphModel dx="398" dy="232" grid="1" gridSize="10" guides="1" tooltips="1" connect="1" arrows="1" fold="1" page="1" pageScale="1" pageWidth="827" pageHeight="1169" math="0" shadow="0">
      <root>
        <mxCell id="0" />
        <mxCell id="1" parent="0" />
        <mxCell id="WnI3qK_31gTjP33_6Msq-50" value="A" style="rounded=0;whiteSpace=wrap;html=1;strokeColor=default;fontFamily=Times New Roman;fontSize=12;fontColor=default;fillColor=default;" parent="1" vertex="1">
          <mxGeometry x="240" y="280" width="80" height="80" as="geometry" />
        </mxCell>
        <mxCell id="WnI3qK_31gTjP33_6Msq-51" value="B" style="rounded=0;whiteSpace=wrap;html=1;strokeColor=default;fontFamily=Times New Roman;fontSize=12;fontColor=default;fillColor=default;" parent="1" vertex="1">
          <mxGeometry x="480" y="280" width="80" height="80" as="geometry" />
        </mxCell>
        <mxCell id="WnI3qK_31gTjP33_6Msq-53" value="RX" style="rounded=0;whiteSpace=wrap;html=1;strokeColor=default;fontFamily=Times New Roman;fontSize=12;fontColor=default;fillColor=default;" parent="1" vertex="1">
          <mxGeometry x="300" y="290" width="20" height="20" as="geometry" />
        </mxCell>
        <mxCell id="WnI3qK_31gTjP33_6Msq-59" style="edgeStyle=orthogonalEdgeStyle;rounded=0;orthogonalLoop=1;jettySize=auto;html=1;fontFamily=Times New Roman;fontSize=12;fontColor=default;fillColor=#dae8fc;strokeColor=#6c8ebf;" parent="1" source="WnI3qK_31gTjP33_6Msq-54" target="WnI3qK_31gTjP33_6Msq-56" edge="1">
          <mxGeometry relative="1" as="geometry" />
        </mxCell>
        <mxCell id="WnI3qK_31gTjP33_6Msq-54" value="TX" style="rounded=0;whiteSpace=wrap;html=1;strokeColor=default;fontFamily=Times New Roman;fontSize=12;fontColor=default;fillColor=default;" parent="1" vertex="1">
          <mxGeometry x="300" y="330" width="20" height="20" as="geometry" />
        </mxCell>
        <mxCell id="WnI3qK_31gTjP33_6Msq-58" style="edgeStyle=orthogonalEdgeStyle;rounded=0;orthogonalLoop=1;jettySize=auto;html=1;fontFamily=Times New Roman;fontSize=12;fontColor=default;fillColor=#f8cecc;strokeColor=#b85450;" parent="1" source="WnI3qK_31gTjP33_6Msq-55" target="WnI3qK_31gTjP33_6Msq-53" edge="1">
          <mxGeometry relative="1" as="geometry" />
        </mxCell>
        <mxCell id="WnI3qK_31gTjP33_6Msq-55" value="TX" style="rounded=0;whiteSpace=wrap;html=1;strokeColor=default;fontFamily=Times New Roman;fontSize=12;fontColor=default;fillColor=default;" parent="1" vertex="1">
          <mxGeometry x="480" y="290" width="20" height="20" as="geometry" />
        </mxCell>
        <mxCell id="WnI3qK_31gTjP33_6Msq-56" value="RX" style="rounded=0;whiteSpace=wrap;html=1;strokeColor=default;fontFamily=Times New Roman;fontSize=12;fontColor=default;fillColor=default;" parent="1" vertex="1">
          <mxGeometry x="480" y="330" width="20" height="20" as="geometry" />
        </mxCell>
      </root>
    </mxGraphModel>
  </diagram>
</mxfile>
